<?xml version="1.0" encoding="UTF-8" standalone="no"?><!DOCTYPE svg PUBLIC "-//W3C//DTD SVG 1.1//EN" "http://www.w3.org/Graphics/SVG/1.1/DTD/svg11.dtd"><svg width="100%" height="100%" viewBox="0 0 611 722" version="1.1" xmlns="http://www.w3.org/2000/svg" xmlns:xlink="http://www.w3.org/1999/xlink" xml:space="preserve" xmlns:serif="http://www.serif.com/" style="fill-rule:evenodd;clip-rule:evenodd;stroke-linejoin:round;stroke-miterlimit:2;"><g id="Main-Logo" serif:id="Main Logo"><path d="M305.483,721.667c75.833,-31.25 127.5,-55.417 162.5,-74.167c52.916,-27.917 97.916,-62.083 121.666,-119.167c14.167,-33.333 21.25,-73.333 20.417,-121.25c-0.417,-112.916 -0.833,-225.416 -1.667,-338.333c-165.416,-91.667 -441.25,-91.667 -606.666,-0c-0.417,112.917 -0.834,225.417 -1.667,338.333c-0.833,47.917 6.25,87.917 20.417,121.25c24.166,56.667 69.166,91.25 121.666,119.167c35.834,18.75 87.5,42.917 163.334,74.167" style="fill:#002d5d;"/><path d="M442.566,92.917l-19.583,-38.334c-1.25,-2.083 -2.084,-3.333 -3.334,-4.166c-1.25,-0.834 -2.916,-1.25 -5.416,-1.25l-0,-3.75l27.5,-0l-0,3.75l-0.834,-0c-2.5,-0 -4.583,0.416 -5.833,0.833c-1.25,0.417 -1.667,1.25 -1.667,2.083c0,0.417 0,0.834 0.417,1.25c0.417,0.417 0.833,1.667 1.25,2.917l15.833,30l13.75,-27.5c0.417,-0.833 0.834,-1.667 0.834,-2.5c0.416,-0.833 0.416,-1.667 0.416,-2.083c0,-1.667 -0.833,-2.917 -2.083,-3.75c-1.25,-0.834 -3.333,-1.25 -6.25,-1.25l-0,-3.75l23.333,-0l0,3.75c-4.166,0.416 -7.083,2.916 -9.583,7.916c-0.417,0.417 -0.417,0.834 -0.417,0.834l-17.5,33.333l0,20.833c0,3.75 0.417,6.25 1.667,7.5c1.25,1.25 3.333,1.667 7.083,1.667l2.084,0l-0,3.75l-32.084,-0l0,-3.75l2.084,0c3.333,0 5.833,-0.417 6.666,-1.667c1.25,-1.25 1.667,-3.75 1.667,-7.916l-0,-18.75m-35.833,-47.5l6.666,19.166l-3.333,1.25c-5.417,-7.083 -10,-11.666 -12.917,-13.75c-2.916,-2.083 -6.25,-2.916 -10,-2.916c-1.666,-0 -2.916,0.416 -3.333,0.833c-0.833,0.417 -0.833,1.667 -0.833,3.333l-0,58.75c-0,4.167 0.416,6.667 1.666,7.917c1.25,1.25 3.334,1.667 7.084,1.667l2.083,-0l-0,3.75l-32.083,-0l-0,-3.75l2.083,-0c3.333,-0 5.833,-0.417 7.083,-1.667c1.25,-1.25 1.667,-3.75 1.667,-7.917l-0,-58.75c-0,-1.666 -0.417,-2.5 -0.833,-3.333c-0.834,-0.417 -1.667,-0.833 -3.334,-0.833c-3.75,-0 -7.083,1.25 -10,2.916c-2.916,2.084 -7.5,6.667 -12.916,13.75l-3.334,-1.25l6.667,-19.166l57.917,-0Zm-69.584,-0l0,4.166l-2.083,0c-3.75,0 -5.833,0.417 -7.083,1.667c-1.25,1.25 -1.667,3.75 -1.667,8.333l-0,52.084c-0,4.583 0.417,7.083 1.667,8.333c1.25,1.25 3.333,2.083 7.083,2.083l2.083,0l0,3.75l-32.083,0l-0,-3.75l1.25,0c3.75,0 6.25,-0.416 7.5,-1.666c1.25,-1.25 1.667,-3.75 1.667,-8.334l-0,-52.5c-0,-4.583 -0.417,-7.5 -1.667,-8.333c-1.25,-1.25 -3.333,-1.667 -7.083,-1.667l-1.667,0l-0,-4.166l32.083,-0Zm-58.75,5.416l-27.083,74.584l-2.917,-0l-27.5,-73.75l0,55.416c0,5 0.834,8.334 2.5,10.834c1.667,2.083 4.167,3.333 7.917,3.75l-0,4.166l-26.25,0l-0,-4.166c3.75,-0.417 6.667,-1.667 8.333,-3.75c1.667,-2.084 2.5,-5.834 2.5,-10.417l0,-46.667c0,-5 -0.416,-8.333 -1.666,-9.583c-1.25,-1.25 -3.334,-1.667 -6.667,-1.667l-2.083,0l-0,-4.166l22.916,-0l23.75,63.75l23.334,-63.75l24.166,-0l0,4.166l-2.083,0c-3.333,0 -5.833,0.417 -7.083,1.667c-1.25,1.25 -1.667,4.167 -1.667,8.75l-0,52.083c-0,4.167 0.417,6.667 1.667,7.917c1.25,1.25 3.333,1.667 6.666,1.667l2.084,-0l-0,3.75l-31.667,-0l-0,-3.75l1.667,-0c3.333,-0 5.833,-0.417 7.083,-1.667c1.25,-1.25 1.667,-3.75 1.667,-7.917l-0,-61.25l0.416,0Zm-149.166,75l-0,-3.75c2.5,0 4.583,-0.833 6.25,-2.083c1.25,-1.25 2.916,-4.167 4.166,-7.917l21.25,-65l8.75,-2.916l23.75,70.416c0.417,1.667 1.25,2.917 1.667,3.75c0.833,1.25 1.25,2.084 2.083,2.5c0.417,0.417 1.25,0.834 2.084,0.834c0.833,-0 2.083,0.416 3.75,0.416l-0,3.75l-29.584,0l0,-3.75l0.834,0c2.916,0 5.416,-0.416 6.666,-1.25c1.25,-0.833 2.084,-2.083 2.084,-3.75c-0,-0.416 -0,-0.833 -0.417,-1.666c-0,-0.834 -0.417,-1.667 -0.833,-2.5l-5,-15l-27.917,-0l-3.75,12.5c-0.417,0.833 -0.417,1.25 -0.417,2.083l0,2.5c0,2.5 0.417,4.167 1.667,5.417c1.25,1.25 2.917,1.666 5.833,1.666l1.25,0l0,3.75l-24.166,0Zm21.25,-32.916l24.583,-0l-12.083,-37.917l-12.5,37.917Z" style="fill:#fff;"/><path d="M460.899,165.417l-10.416,-19.167c-0.417,-0.833 -1.25,-1.667 -1.667,-2.083c-0.833,-0.417 -1.667,-0.417 -2.917,-0.417l0,-2.083l14.584,-0l-0,2.083l-0.417,-0c-1.25,-0 -2.5,-0 -2.917,0.417c-0.833,0.416 -0.833,0.416 -0.833,1.25l-0,0.833c-0,0.417 0.417,0.833 0.833,1.25l8.334,15l7.5,-13.75c0.416,-0.417 0.416,-0.833 0.416,-1.25l0,-1.25c0,-0.833 -0.416,-1.25 -1.25,-1.667c-0.833,-0.416 -2.083,-0.416 -3.333,-0.416l-0,-2.084l12.5,0l-0,2.084c-2.083,0.416 -3.75,1.666 -5,3.75c-0,0.416 -0,0.416 -0.417,0.416l-9.166,16.667l-0,10.417c-0,2.083 0.416,3.333 0.833,3.75c0.833,0.416 1.667,0.833 3.75,0.833l1.25,-0l-0,2.083l-17.083,0l-0,-2.083l1.25,-0c1.666,-0 2.916,-0.417 3.75,-0.833c0.416,-0.417 0.833,-1.667 0.833,-3.75l-0,-10m-19.583,-24.167l3.333,9.583l-1.667,0.834c-2.916,-3.75 -5.416,-5.834 -7.083,-7.084c-1.667,-0.833 -3.333,-1.666 -5.417,-1.666c-0.833,-0 -1.666,-0 -1.666,0.416c-0.417,0.417 -0.417,0.834 -0.417,1.667l-0,29.583c-0,2.084 0.417,3.334 0.833,3.75c0.417,0.417 1.667,0.834 3.75,0.834l1.25,-0l0,2.083l-17.5,0l0,-2.083l1.25,-0c2.084,-0 2.917,-0.417 3.75,-0.834c0.417,-0.416 0.834,-2.083 0.834,-3.75l-0,-29.583c-0,-0.833 -0,-1.25 -0.417,-1.667c-0.417,-0.416 -0.833,-0.416 -1.667,-0.416c-2.083,-0 -3.75,0.416 -5.416,1.666c-1.667,1.25 -3.75,3.334 -7.084,7.084l-2.083,-0.834l3.333,-9.583l32.084,0Zm-37.084,-0.417l0,2.5l-1.25,0c-2.083,0 -3.333,0.417 -3.75,0.834c-0.416,0.416 -0.833,2.083 -0.833,4.166l-0,25.834c-0,2.083 0.417,3.75 0.833,4.166c0.834,0.834 2.084,0.834 3.75,0.834l0.834,-0l-0,2.083l-17.084,-0l0,-2.083l0.834,-0c2.083,-0 3.333,-0.417 3.75,-0.834c0.833,-0.416 0.833,-2.083 0.833,-4.166l-0,-26.25c-0,-2.084 -0.417,-3.75 -0.833,-4.167c-0.417,-0.417 -2.084,-0.833 -3.75,-0.833l-0.834,-0l0,-2.084l17.5,0Zm-46.25,41.667l-4.166,-10.833l2.083,-0.834c2.5,2.917 5,5.417 7.5,7.084c2.5,1.666 5,2.5 7.5,2.5c2.5,-0 4.167,-0.834 5.833,-2.084c1.667,-1.666 2.5,-3.333 2.5,-5.416c0,-2.084 -0.833,-4.167 -2.083,-5.417c-1.25,-1.25 -4.583,-2.5 -8.75,-3.75c-0.417,0 -0.833,0 -1.25,-0.417c-3.75,-0.833 -6.25,-2.083 -7.917,-3.75c-1.25,-1.25 -2.083,-2.5 -2.5,-3.75c-0.416,-1.25 -0.833,-2.916 -0.833,-4.166c-0,-2.917 1.25,-5.834 3.333,-7.5c2.084,-2.084 5,-2.917 8.334,-2.917c1.25,0 2.5,0.417 4.166,0.833c1.667,0.417 2.5,0.834 2.917,0.834c0.417,-0 1.25,-0 1.667,-0.417c0.833,0 1.25,-0.417 2.083,-0.833l4.167,10l-1.667,0.833c-2.5,-3.333 -4.583,-5.417 -6.667,-7.083c-2.083,-1.667 -4.583,-2.5 -6.666,-2.5c-2.084,-0 -3.75,0.833 -5.417,2.083c-1.25,1.25 -2.083,2.917 -2.083,5c-0,1.25 0.416,2.083 0.833,2.917c0.417,0.833 1.25,1.666 2.083,2.5c1.25,0.833 3.75,2.083 7.917,2.916c0.833,0.417 1.667,0.417 2.083,0.417c3.75,0.833 6.25,2.5 7.917,4.583c1.667,2.084 2.5,4.584 2.5,7.5c-0,3.334 -1.25,6.25 -3.333,8.334c-2.084,2.083 -5,3.333 -8.334,3.333c-2.083,0 -3.75,-0.417 -5.833,-0.833c-2.083,-0.834 -2.917,-0.834 -3.333,-0.834c-0.417,0 -0.834,0 -1.667,0.417c-0.833,0 -1.667,0.417 -2.917,1.25m-32.5,-22.5l5.417,0c3.75,0 6.25,-0.833 7.917,-2.083c1.666,-1.25 2.5,-3.334 2.5,-6.25c-0,-2.917 -0.834,-5 -2.5,-6.667c-1.667,-1.25 -4.167,-2.083 -7.5,-2.083c-2.5,-0 -3.75,0.416 -4.584,0.833c-0.833,0.417 -1.25,2.083 -1.25,3.75l0,12.5Zm16.667,21.667l-11.25,-19.584l-4.583,0l-0,12.917c-0,2.083 0.416,3.333 0.833,3.75c0.833,0.417 1.667,0.833 3.75,0.833l0.833,0l0,2.084l-17.083,-0l-0,-2.084l0.833,0c2.084,0 3.334,-0.416 3.75,-0.833c0.417,-0.417 0.834,-2.083 0.834,-4.167l-0,-26.25c-0,-2.083 -0.417,-3.333 -0.834,-3.75c-0.416,-0.416 -2.083,-0.833 -3.75,-0.833l-0.833,0l-0,-2.083l17.083,-0c5.417,-0 9.167,0.833 12.084,2.916c2.916,1.667 4.166,4.584 4.166,7.917c0,2.5 -0.833,4.583 -2.916,6.25c-2.084,1.667 -4.584,2.5 -8.75,3.333l7.916,12.917c1.25,2.083 2.5,3.333 3.334,4.167c0.833,0.833 2.5,0.833 4.166,0.833l0.417,0l-0,2.083l-10,0l-0,-0.416Zm-67.083,-0l-0,-2.084l0.833,0c2.083,0 3.333,-0.416 3.75,-0.833c0.417,-0.417 0.833,-2.083 0.833,-4.167l0,-26.25c0,-2.083 -0.416,-3.75 -0.833,-4.166c-0.417,-0.417 -2.083,-0.834 -3.75,-0.834l-0.833,0l-0,-2.083l30,0l4.166,9.583l-1.666,0.417c-2.5,-3.333 -5,-5.417 -7.084,-6.667c-2.083,-1.25 -4.583,-1.666 -7.916,-1.666c-2.5,-0 -4.167,0.416 -5,0.833c-0.834,0.417 -1.25,1.667 -1.25,3.75l-0,11.667l2.916,-0c2.917,-0 4.584,-0.417 6.25,-1.667c1.25,-0.833 2.084,-2.5 2.5,-5l2.084,0l-0,15.417l-2.084,-0c-0.416,-2.5 -1.25,-4.167 -2.5,-5.417c-1.25,-1.25 -3.333,-1.667 -6.25,-1.667l-2.916,0l-0,13.75c-0,1.667 0.416,2.5 1.25,3.334c0.833,0.416 2.083,0.833 3.75,0.833c3.75,0 7.083,-0.833 9.583,-2.083c2.917,-1.25 5.417,-3.75 7.5,-6.667l1.667,0.417l-4.167,10.416l-30.833,0l-0,0.834Zm-22.5,1.25l-12.084,-33.334l0,-0.416c-1.25,-3.75 -3.75,-5.834 -6.25,-5.834l0,-2.083l15.834,0l-0,2.083c-1.667,0 -2.917,0.417 -3.75,0.417c-0.834,0.417 -1.25,0.833 -1.25,1.25l-0,0.833c-0,0.417 0.416,1.25 0.416,1.667l9.584,25.417l8.75,-24.584c-0,-0.416 0.416,-0.833 0.416,-1.25l0,-1.25c0,-0.833 -0.416,-1.666 -1.25,-2.083c-0.833,-0.417 -2.083,-0.833 -3.75,-0.833l0,-2.084l12.917,0l-0,2.084c-1.25,-0 -2.5,0.416 -3.333,1.25c-0.834,0.833 -1.25,1.666 -2.084,3.333l-12.916,35l-1.25,0l-0,0.417Zm-20.417,-42.084l-0,2.5l-1.25,0c-2.083,0 -3.333,0.417 -3.75,0.834c-0.417,0.416 -0.833,2.083 -0.833,4.166l-0,25.834c-0,2.083 0.416,3.75 0.833,4.166c0.417,0.834 2.083,0.834 3.75,0.834l0.833,-0l0,2.083l-17.083,-0l-0,-2.083l0.833,-0c2.084,-0 3.334,-0.417 3.75,-0.834c0.834,-0.416 0.834,-2.083 0.834,-4.166l-0,-26.25c-0,-2.084 -0.417,-3.75 -0.834,-4.167c-0.416,-0.417 -2.083,-0.833 -3.75,-0.833l-0.833,-0l-0,-2.084l17.5,0Zm-50.833,0.417l23.333,31.25l-0,-22.083c-0,-2.5 -0.417,-4.584 -1.25,-5.417c-0.833,-1.25 -2.5,-1.667 -4.583,-1.667l-0,-2.083l15,0l-0,2.083c-2.084,0 -3.75,0.417 -4.584,1.667c-0.833,1.25 -1.25,2.917 -1.25,5.417l0,31.666l-2.083,0l-25.417,-34.166l0,23.75c0,2.5 0.417,4.583 1.25,5.416c0.834,1.25 2.5,1.667 4.584,1.667l-0,2.083l-15,0l-0,-2.083c2.083,0 3.75,-0.417 4.583,-1.667c0.833,-1.25 1.25,-2.916 1.25,-5.416l-0,-25.834c-0.833,-0.833 -1.667,-1.25 -2.5,-1.666c-0.833,-0.417 -2.083,-0.834 -3.75,-0.834l-0,-2.083l10.417,0Zm-25,2.5l-0,-2.083l13.75,-0l-0,2.083c-2.084,0 -3.334,0.833 -4.167,1.667c-0.833,1.25 -1.25,2.916 -1.25,5.416l-0,15.834c-0,5.416 -1.25,9.583 -3.75,12.083c-2.5,2.5 -6.25,3.75 -11.25,3.75c-5,0 -8.75,-1.25 -11.25,-3.75c-2.5,-2.5 -3.75,-5.833 -3.75,-10.833l-0,-20c-0,-2.084 -0.417,-3.334 -0.833,-3.75c-0.417,-0.417 -1.667,-0.834 -3.75,-0.834l-0.834,0l0,-1.666l16.667,-0l-0,2.083l-1.25,0c-2.083,0 -2.917,0.417 -3.75,0.833c-0.417,0.417 -0.833,2.084 -0.833,4.167l-0,20.833c-0,3.75 0.833,6.25 2.5,8.334c1.666,1.666 4.583,2.916 7.916,2.916c3.75,0 6.25,-0.833 8.334,-2.916c1.666,-2.084 2.5,-5.417 2.5,-9.584l-0,-16.666c-0,-2.5 -0.417,-4.167 -1.25,-5.417c-0.417,-2.083 -1.667,-2.5 -3.75,-2.5" style="fill:#fff;"/><path d="M305.483,696.25c50.833,-21.25 103.333,-43.75 151.666,-69.167c47.917,-25.416 89.584,-56.25 111.25,-107.5c15,-35 19.167,-74.166 18.75,-111.666l0,-0.417l-1.25,-187.5c-170.833,-34.167 -454.166,-9.167 -561.25,143.333l-0.416,44.167l-0,0.417c-0.834,37.916 3.75,76.666 18.75,111.666c21.666,51.25 63.333,82.084 111.25,107.5c47.916,25.834 100,48.334 151.25,69.167" style="fill:#ffca04;"/><g><clipPath id="_clip1"><path d="M24.233,362.917l-0.417,44.166l-0,0.417c-0.833,37.917 3.75,76.667 18.75,111.667c21.667,51.25 63.333,82.083 111.25,107.5c48.333,25.833 100.833,47.916 151.667,69.166c50.833,-21.25 102.916,-43.333 151.666,-69.166c47.917,-25.417 89.584,-56.25 111.25,-107.5c15,-35 19.167,-74.167 18.75,-111.667l0,-0.417l-1.25,-187.5c-42.916,-8.75 -93.333,-13.333 -145.833,-13.333c-157.083,0.417 -335.417,42.917 -415.833,156.667"/></clipPath><g clip-path="url(#_clip1)"><path d="M311.733,605.833c-0.834,1.667 -0.417,4.167 1.666,5.834c2.084,1.666 5,1.666 7.5,1.666c27.084,0.834 49.584,-7.5 67.084,-25c2.5,-2.5 2.083,-6.25 -0.417,-5.833c-20,14.167 -42.5,22.5 -66.25,20.417c-3.333,-0 -8.333,-0.834 -9.583,2.916m-8.75,-2.5c2.083,0.417 3.75,2.5 3.333,4.584c-0.417,2.083 -2.5,3.333 -4.583,2.916c-2.084,-0.416 -3.75,-2.5 -3.334,-4.583c0.417,-2.083 2.5,-3.333 4.584,-2.917m-9.584,-1.666c1.25,0.416 1.667,1.25 1.667,2.083c-0,0.833 -1.25,1.667 -2.5,1.25c-1.25,-0.417 -1.667,-1.25 -1.667,-2.083c0.417,-0.834 1.25,-1.667 2.5,-1.25m-32.916,-44.167c30.416,61.667 158.333,37.917 143.75,-47.083c10.416,3.333 15.833,13.333 17.083,27.5c1.667,16.666 -2.917,32.083 -5,48.75c-3.333,25.833 -2.917,50 1.25,79.583c-8.333,5.417 -18.75,10 -29.167,13.75c-2.916,-12.083 -6.666,-25 -9.583,-36.667c-2.5,0.834 -5.417,1.667 -7.917,2.084c2.917,12.5 6.25,25 9.584,37.083c-2.5,0.833 -4.584,1.25 -7.084,1.667c-4.583,-11.25 -9.166,-22.5 -13.75,-33.334c-3.333,0 -7.916,-0.416 -11.25,-0.833c5.417,11.667 10.834,24.167 16.25,36.25c-3.75,0.417 -7.083,1.25 -10.416,1.25c-6.25,-12.083 -12.917,-24.583 -19.167,-36.667c-3.333,0 -6.667,-0.416 -10,-0.833c7.083,12.5 14.583,25.833 21.25,38.333l0.417,0c-5,0 -10,0 -14.167,-0.833l-47.917,-67.5c27.5,24.167 85,24.583 110.834,-2.917c7.5,-6.25 2.5,-19.583 -10.417,-9.166c-10.833,8.75 -25,14.583 -39.583,16.666c-22.5,3.75 -45.834,-0.416 -64.167,-13.75c-15.833,-11.666 -26.667,-28.75 -20.833,-53.333" style="fill:#002d5d;"/></g></g><path d="M394.233,399.583c-29.167,13.334 -37.5,55.417 -35.834,85.417c0.834,11.25 2.084,22.917 -2.916,33.75c-13.75,31.25 -61.667,12.083 -51.25,-31.25c10.416,-43.75 32.083,-83.333 32.5,-135c-0,-42.5 -17.084,-80.417 -51.667,-114.583c10.833,37.5 -7.083,57.083 -27.5,79.583c-11.25,12.5 -22.5,24.167 -27.5,40.417c-7.5,22.083 -5,46.666 11.25,68.333c-1.667,-13.75 -2.083,-26.667 -0,-38.333c7.083,-33.75 51.25,-49.584 62.083,-79.167c11.667,18.75 7.917,45.833 -2.083,71.25c-18.75,39.167 -56.667,92.5 -46.667,137.917c5.834,27.5 19.584,47.083 45.417,57.5c31.667,12.916 70.833,-0 86.25,-31.667c7.5,-15.417 7.917,-32.917 2.917,-51.667c-17.084,-57.5 -6.667,-75.833 5,-92.5" style="fill:#fff;"/><path d="M387.149,406.25c-0.833,0.833 -1.666,1.25 -2.5,2.083c-3.333,2.917 -5.833,5.834 -8.333,9.584c-12.917,18.333 -16.667,45.416 -15.417,66.666l0,2.5c0.834,10.834 1.667,22.084 -3.333,32.5c-4.583,10 -12.5,15.417 -20.833,16.25c-4.584,0.417 -9.584,0 -13.75,-1.666c-4.584,-1.667 -8.75,-4.584 -12.084,-8.334c-7.916,-8.333 -12.5,-22.083 -8.333,-38.75c3.333,-14.583 8.333,-28.75 12.917,-43.333c9.583,-28.333 19.166,-57.083 19.166,-91.25c0,-20.833 -4.166,-40.833 -12.5,-59.583c-7.5,-16.667 -18.333,-32.5 -32.5,-47.917c6.25,33.333 -10.416,52.083 -30,73.75l-0.833,0.833c-10.833,11.667 -21.25,23.334 -26.25,38.75c-0.833,2.917 -1.667,5.834 -2.5,9.167c-0.417,2.917 -1.25,6.25 -1.25,9.167c-0.833,13.333 2.083,27.5 9.583,40.416c-0.416,-3.75 -0.416,-7.5 -0.416,-11.25c-0,-6.666 0.416,-12.916 1.666,-18.75c3.75,-19.166 18.75,-32.5 33.334,-45.416c12.083,-10.834 23.75,-21.25 28.75,-34.167l1.666,-4.167l2.5,3.75c1.667,2.917 2.917,5.834 4.167,8.75c1.25,2.917 2.083,6.25 2.5,9.584c2.917,16.666 -1.25,36.25 -8.333,55c-4.167,8.333 -8.75,17.5 -14.167,27.083c-18.75,34.167 -40,74.583 -32.5,109.167c2.917,13.333 7.917,25 15,34.166c7.083,9.167 16.667,16.667 29.167,21.667c4.166,1.667 8.75,2.917 13.333,3.75c4.583,0.833 9.167,1.25 13.75,0.833c23.333,-0.833 45.833,-13.333 56.667,-35c3.75,-7.5 5.416,-15.416 5.833,-23.75c0.417,-8.333 -0.833,-17.083 -2.917,-26.25c-8.333,-29.166 -10,-48.75 -7.916,-62.916c-0.417,-8.75 2.916,-16.25 6.666,-22.917m5.834,-8.75l2.916,3.333c-5.416,8.334 -10.833,16.667 -12.916,30c-2.084,13.75 -0.417,32.5 7.916,60.834c2.5,9.583 3.75,19.166 3.334,27.916c-0.417,8.75 -2.5,17.5 -6.25,25.417c-11.25,23.333 -35.417,37.083 -60.417,37.5c-5,0 -9.583,0 -14.583,-0.833c-5,-0.834 -9.584,-2.084 -14.167,-4.167c-13.333,-5.417 -23.333,-12.917 -30.833,-22.917c-7.5,-10 -12.5,-22.083 -15.834,-36.25c-7.916,-36.25 14.167,-77.5 32.917,-112.5c5,-9.583 10,-18.333 13.75,-26.666c7.083,-17.917 10.833,-36.667 8.333,-52.5c-0.416,-2.917 -1.25,-5.834 -2.083,-8.75c-0.417,-1.25 -0.833,-2.5 -1.667,-4.167c-5.833,12.083 -16.666,21.667 -27.916,31.667c-14.167,12.5 -28.334,25.416 -32.084,42.916c-1.25,5.417 -1.666,11.667 -1.666,17.917c-0,6.25 0.416,12.917 1.666,19.583l-4.166,1.667c-12.084,-16.25 -16.667,-33.75 -15.834,-50.833c0.417,-3.334 0.834,-6.667 1.25,-10c0.834,-3.334 1.667,-6.25 2.5,-9.584c5.417,-16.25 16.25,-28.333 27.084,-40.416l0.833,-0.834c20,-22.083 37.5,-41.25 27.083,-77.5l3.75,-2.083c17.5,17.5 30.417,35.417 39.167,55c8.75,19.167 12.917,39.583 12.917,61.25c-0,34.583 -10,63.75 -19.584,92.5c-4.583,14.167 -9.583,28.333 -12.916,42.917c-3.75,15.416 0.416,27.083 7.5,35c2.916,3.333 6.666,5.833 10.416,7.083c3.75,1.25 7.917,2.083 11.667,1.667c7.083,-0.834 13.75,-5.417 17.5,-13.75c4.167,-9.584 3.333,-20 2.917,-30.417l-0,-2.5c-1.25,-21.667 2.5,-50 16.25,-69.167c2.5,-3.75 5.833,-7.5 9.166,-10.416c4.167,-3.334 7.917,-5.834 12.084,-7.917" style="fill:#a7a9ab;fill-rule:nonzero;"/></g></svg>